<?xml version="1.0" encoding="utf-8"?><svg xmlns="http://www.w3.org/2000/svg" xmlns:xlink="http://www.w3.org/1999/xlink" width="209" height="30" viewBox="0 0 419 60"><defs><path id="A" d="M0 59.94h317.006V0H0z"/><path id="B" d="M118.2 37.885c0-5.827-1.777-7.9-4.986-7.9-3.26 0-5.432 2.025-5.432 7.948 0 5.975 1.926 8.346 5.235 8.346 3.21 0 5.183-2.223 5.183-8.394zm-18.22.296c0-8.196 4.296-13.53 13.332-13.53 9.134 0 12.69 5.432 12.69 12.986 0 8.394-4.246 13.824-13.33 13.824-9.036 0-12.7-5.53-12.7-13.28z"/></defs><g fill-rule="evenodd"><g fill="#152849"><path d="M97.216 48.747c-2.913 1.778-7.85 2.715-12.344 2.715-12.294 0-17.33-7.16-17.33-18.613 0-10.518 6.074-18.368 18.368-18.368 4.098 0 8.492 1.037 11.21 2.814v9.677l-5.432-.443-.8-4.838c-.098-.495-.296-.742-.8-.9-1.086-.346-2.765-.592-4.394-.592-6.27 0-10.27 4.245-10.27 12.64 0 8.74 3.802 12.985 9.925 12.985 1.63 0 3.654-.247 4.937-.642.593-.147.74-.297.89-1.037l.74-4.59h5.283v9.183"/><use xlink:href="#B"/><path d="M151.136 49.044c-2.27 1.382-5.776 2.418-9.38 2.418-8.938 0-12.937-5.578-12.937-13.084 0-9.233 5.63-13.726 13.53-13.726 3.85 0 7.258 1.086 8.788 2.075v7.75l-5.282-.247-.593-3.26c-.05-.346-.148-.64-.592-.8-.593-.197-1.53-.345-2.518-.345-2.963 0-5.48 2.024-5.48 7.8 0 6.418 2.864 8.246 6.37 8.246 2.47 0 4.7-.8 6.172-1.433l1.925 4.593m21.478 1.84l-6.27-12.6-2.667 2.913v4.444c0 .8.05.9.8.987l2.963.346v3.9h-14.467v-3.9l2.47-.346c.7-.098.8-.247.8-.987v-26.07c0-.544-.148-.9-.642-1.036l-2.716-.94.543-4h10.27v21.084l9.036-9.53h6.814v3.9l-2.568.493c-.642.1-.8.247-1.234.74l-3.506 3.703 6.32 11.8c.346.692.692.8 1.48.9l2.173.345v3.85h-9.578m11.83.004v-4l2.222-.297c.7-.098.8-.246.8-.987V31.12c0-.544-.148-.9-.642-1.037l-2.666-.94.543-4h8.7l.592 3.95h.297c1.63-2.518 3.8-4.443 6.96-4.443 1.136 0 3.407.198 4.296.444v8.987l-5.925-.197-.493-2.618c-.1-.444-.247-.542-.642-.542-1.284 0-2.815 1.085-3.556 1.727v13.084c0 .8.05.94.8 1l4.888.395v3.95h-16.146"/><use xlink:href="#B" x="107.793"/><path d="M250.78 40.254l-3.357.247c-2.914.198-3.95.94-3.95 2.913s1.186 2.716 2.815 2.716c1.68 0 3.358-.938 4.493-1.777v-4.1zm1.333 10.616l-.493-2.666-.248-.05c-1.876 1.826-4.344 3.307-8.294 3.307-6.222 0-7.2-4.246-7.2-7.307 0-4.938 3.06-7.2 9.233-7.603l5.678-.395V33.44c0-2.32-.247-3.9-3.308-3.9-2.37 0-3.604.347-3.604 3.3l-6.962-.594c0-6.665 6.073-7.603 10.616-7.603 7.505 0 10.516 2.025 10.516 8.937v11.998c0 .8.05.9.8.987l2.37.396v3.9h-9.085zm32.49-1.826c-2.27 1.382-5.776 2.418-9.38 2.418-8.937 0-12.937-5.578-12.937-13.084 0-9.233 5.63-13.726 13.53-13.726 3.85 0 7.258 1.086 8.788 2.075v7.75l-5.282-.247-.593-3.26c-.05-.346-.148-.64-.592-.8-.592-.197-1.53-.345-2.518-.345-2.963 0-5.48 2.024-5.48 7.8 0 6.418 2.864 8.246 6.37 8.246 2.47 0 4.7-.8 6.172-1.433l1.925 4.593"/></g><mask id="C" fill="#fff"><use xlink:href="#A"/></mask><path d="M306.292 50.87V34.773c0-1.48-.15-4.196-2.617-4.196-1.827 0-3.9.94-5.135 1.828v13.232c0 .8.05.9.8.987l2.37.346v3.9h-13.627v-3.9l2.222-.346c.7-.098.8-.247.8-.987v-26.07c0-.544-.148-.9-.642-1.036l-2.715-.94.543-4h10.17v13.974l.247.048c2.222-1.826 4.8-2.962 7.9-2.962 5.233 0 7.16 2.864 7.16 7.998v12.987c0 .8.05.9.8.987l2.468.346v3.9h-10.714M36.414 17.194a28.79 28.79 0 0 1-6.577.75c-2.26 0-4.467-.256-6.586-.75a29.31 29.31 0 0 1 6.586-7.337 29.47 29.47 0 0 1 6.577 7.337zM56.306 1.076C53.653.368 50.856 0 47.98 0c-6.704 0-12.943 2.017-18.15 5.485A32.59 32.59 0 0 0 11.678 0C8.8 0 6.004.368 3.35 1.076 2.23 1.36 1.145 1.72.083 2.12a.13.13 0 0 0-.071.175 32.47 32.47 0 0 0 1.539 2.93c.03.053.094.075.15.055A30.76 30.76 0 0 1 5.1 4.275c2.115-.493 4.32-.743 6.58-.743 5.54 0 10.72 1.55 15.148 4.22a32.81 32.81 0 0 0-7.08 8.4 31.67 31.67 0 0 0-1.022 1.855 35.85 35.85 0 0 0-.627 1.3c-.296.672-.583 1.344-.834 2.034a32.67 32.67 0 0 0-2.052 11.42c0 9.276 3.88 17.666 10.1 23.636a24.34 24.34 0 0 0 1.515 1.362c.412.358.825.7 1.255 1.013.542.43 1.108.827 1.676 1.206.043.03.1.03.143 0 .567-.388 1.126-.785 1.667-1.206a19.52 19.52 0 0 0 1.264-1.013 31.57 31.57 0 0 0 1.524-1.362c6.2-5.97 10.093-14.368 10.093-23.636a32.6 32.6 0 0 0-2.053-11.411c-.26-.7-.538-1.37-.842-2.043-.198-.448-.404-.88-.6-1.3-.332-.627-.663-1.246-1.03-1.855-1.882-3.182-4.275-6.024-7.08-8.4a29.25 29.25 0 0 1 15.148-4.22c2.26 0 4.464.25 6.58.743a30.24 30.24 0 0 1 3.398 1.005c.057.02.12-.003.15-.055.556-.945 1.066-1.922 1.537-2.93a.13.13 0 0 0-.071-.176c-1.07-.4-2.156-.76-3.267-1.044z" mask="url(#C)" fill="#152849"/><path d="M331.056 25.197h5.657V45.65h10.48v5.22h-16.137V25.197m31.04 7.47l-3.118 7.977h6.273l-3.155-7.977zm-2.176-7.47h4.678l11.17 25.673h-6.383l-2.2-5.44H357.2l-2.14 5.44h-6.237l11.096-25.673zm23.824 20.887h5.077a6.17 6.17 0 0 0 1.324-.146 3.46 3.46 0 0 0 1.214-.508 2.86 2.86 0 0 0 .89-.942c.23-.388.344-.858.344-1.414 0-.605-.15-1.093-.453-1.468s-.683-.66-1.142-.853a5.9 5.9 0 0 0-1.486-.399c-.533-.073-1.03-.1-1.488-.1h-4.28v5.84zm0-10.625h4.098a5.74 5.74 0 0 0 1.287-.145c.423-.096.804-.254 1.143-.47s.6-.508.815-.87.3-.797.3-1.305c0-.532-.115-.974-.345-1.323a2.4 2.4 0 0 0-.888-.817c-.362-.193-.774-.332-1.233-.417s-.907-.127-1.342-.127h-3.844v5.476zm-5.657-10.262h9.574a24.23 24.23 0 0 1 3.354.235c1.124.158 2.133.472 3.028.943a5.79 5.79 0 0 1 2.176 1.976c.556.846.834 1.97.834 3.372 0 1.452-.406 2.654-1.215 3.6s-1.88 1.638-3.2 2.047v.073c.845.122 1.613.357 2.303.708s1.28.797 1.776 1.34.877 1.18 1.142 1.903a6.7 6.7 0 0 1 .399 2.321c0 1.355-.3 2.485-.87 3.4a6.84 6.84 0 0 1-2.248 2.194c-.92.556-1.953.955-3.1 1.196s-2.3.363-3.427.363h-10.516v-25.66zm36.373 6.273c-.46-.58-1.082-1-1.868-1.288s-1.53-.416-2.23-.416a5.83 5.83 0 0 0-1.27.145 4.86 4.86 0 0 0-1.233.453 2.69 2.69 0 0 0-.943.816c-.242.338-.362.75-.362 1.232 0 .775.3 1.367.87 1.778s1.3.76 2.194 1.05l2.846.87a11.68 11.68 0 0 1 2.847 1.232 6.75 6.75 0 0 1 2.194 2.14c.58.895.87 2.092.87 3.6 0 1.427-.266 2.67-.798 3.735s-1.25 1.946-2.157 2.648-1.96 1.22-3.155 1.558-2.46.508-3.8.508c-1.668 0-3.216-.253-4.642-.76s-2.756-1.33-4-2.467l4.026-4.423a5.89 5.89 0 0 0 2.193 1.795c.882.423 1.795.634 2.738.634.46 0 .924-.054 1.396-.162a4.63 4.63 0 0 0 1.269-.49 2.76 2.76 0 0 0 .907-.835c.23-.338.344-.737.344-1.196 0-.774-.296-1.384-.888-1.83s-1.336-.828-2.23-1.143l-2.9-.943c-1.04-.313-2.007-.737-2.9-1.27s-1.638-1.232-2.23-2.103-.9-2.018-.9-3.445c0-1.377.272-2.586.816-3.626a7.88 7.88 0 0 1 2.176-2.611c.906-.7 1.952-1.227 3.137-1.578a12.85 12.85 0 0 1 3.662-.524c1.45 0 2.853.205 4.207.616a9.71 9.71 0 0 1 3.662 2.066l-3.88 4.243M40.916 32.763c0 7.752-3.03 14.803-7.978 20.04a29.37 29.37 0 0 1-1.342-8.778 29.06 29.06 0 0 1 7.978-20.04 29.28 29.28 0 0 1 1.342 8.778" fill="#54b30e"/><path d="M28.06 44.025a29.15 29.15 0 0 1-1.343 8.778c-4.947-5.237-7.978-12.288-7.978-20.04 0-3.056.48-6.005 1.355-8.778 4.947 5.224 7.966 12.288 7.966 20.04" fill="#93e600"/></g></svg>